<svg xmlns="http://www.w3.org/2000/svg" width="1920" height="1080"><path d="M-433,-270L-143,-303L787,-503Z" fill="#d8e5f0" stroke="#d8e5f0" stroke-width="1.51"/><path d="M787,-503L1121,-497L1315,-525Z" fill="#c0c0de" stroke="#c0c0de" stroke-width="1.51"/><path d="M1772,1451L1146,1579L2016,1479Z" fill="#772d81" stroke="#772d81" stroke-width="1.51"/><path d="M2131,779L2361,928L2381,464Z" fill="#7e488e" stroke="#7e488e" stroke-width="1.51"/><path d="M2114,656L2131,779L2381,464Z" fill="#845297" stroke="#845297" stroke-width="1.51"/><path d="M2361,928L2222,1043L2390,1385Z" fill="#76247d" stroke="#76247d" stroke-width="1.51"/><path d="M2222,1043L2130,1241L2390,1385Z" fill="#7b1d7c" stroke="#7b1d7c" stroke-width="1.51"/><path d="M2064,325L2381,464L2431,156Z" fill="#88669d" stroke="#88669d" stroke-width="1.51"/><path d="M2361,928L2390,1385L2431,156Z" fill="#753c83" stroke="#753c83" stroke-width="1.51"/><path d="M2381,464L2361,928L2431,156Z" fill="#79558f" stroke="#79558f" stroke-width="1.51"/><path d="M2069,-5L2431,156L2451,26Z" fill="#9371a1" stroke="#9371a1" stroke-width="1.51"/><path d="M2262,-273L2069,-5L2451,26Z" fill="#a078a8" stroke="#a078a8" stroke-width="1.51"/><path d="M2431,156L2390,1385L2451,26Z" fill="#76548c" stroke="#76548c" stroke-width="1.51"/><path d="M2069,-5L2064,325L2431,156Z" fill="#9871a8" stroke="#9871a8" stroke-width="1.51"/><path d="M2130,1241L2016,1479L2390,1385Z" fill="#7b0d77" stroke="#7b0d77" stroke-width="1.51"/><path d="M2064,325L2114,656L2381,464Z" fill="#895e9e" stroke="#895e9e" stroke-width="1.51"/><path d="M2131,779L2222,1043L2361,928Z" fill="#7f398a" stroke="#7f398a" stroke-width="1.51"/><path d="M1522,1427L1146,1579L1772,1451Z" fill="#7a3886" stroke="#7a3886" stroke-width="1.51"/><path d="M1315,-525L1833,-363L2008,-423Z" fill="#bd9ccb" stroke="#bd9ccb" stroke-width="1.51"/><path d="M2008,-423L2069,-5L2262,-273Z" fill="#b284b6" stroke="#b284b6" stroke-width="1.51"/><path d="M2131,779L1821,1046L2222,1043Z" fill="#873c93" stroke="#873c93" stroke-width="1.51"/><path d="M1821,1046L2130,1241L2222,1043Z" fill="#852e8d" stroke="#852e8d" stroke-width="1.51"/><path d="M2008,-423L1833,-363L2069,-5Z" fill="#b58bbd" stroke="#b58bbd" stroke-width="1.51"/><path d="M1833,-363L1865,8L2069,-5Z" fill="#ad87bc" stroke="#ad87bc" stroke-width="1.51"/><path d="M1865,8L2064,325L2069,-5Z" fill="#9f7bb3" stroke="#9f7bb3" stroke-width="1.51"/><path d="M2064,325L1761,604L2114,656Z" fill="#8d64a7" stroke="#8d64a7" stroke-width="1.51"/><path d="M1772,1451L2016,1479L2130,1241Z" fill="#7f1b7f" stroke="#7f1b7f" stroke-width="1.51"/><path d="M2114,656L1761,604L2131,779Z" fill="#8b56a0" stroke="#8b56a0" stroke-width="1.51"/><path d="M1761,604L1821,1046L2131,779Z" fill="#8a4f9f" stroke="#8a4f9f" stroke-width="1.51"/><path d="M1821,1046L1772,1451L2130,1241Z" fill="#852c8b" stroke="#852c8b" stroke-width="1.51"/><path d="M1865,8L1628,216L2064,325Z" fill="#9c7eb8" stroke="#9c7eb8" stroke-width="1.51"/><path d="M1628,216L1761,604L2064,325Z" fill="#9375b4" stroke="#9375b4" stroke-width="1.51"/><path d="M1761,604L1620,721L1821,1046Z" fill="#8b58a8" stroke="#8b58a8" stroke-width="1.51"/><path d="M230,1427L-403,1367L499,1512Z" fill="#a078a9" stroke="#a078a9" stroke-width="1.51"/><path d="M1620,721L1538,986L1821,1046Z" fill="#8a53a5" stroke="#8a53a5" stroke-width="1.51"/><path d="M1468,1226L1772,1451L1821,1046Z" fill="#873894" stroke="#873894" stroke-width="1.51"/><path d="M1833,-363L1369,-181L1865,8Z" fill="#b194c7" stroke="#b194c7" stroke-width="1.51"/><path d="M1369,-181L1628,216L1865,8Z" fill="#a690c4" stroke="#a690c4" stroke-width="1.51"/><path d="M709,1492L499,1512L1146,1579Z" fill="#7e5d94" stroke="#7e5d94" stroke-width="1.51"/><path d="M1468,1226L1522,1427L1772,1451Z" fill="#85368f" stroke="#85368f" stroke-width="1.51"/><path d="M1538,986L1468,1226L1821,1046Z" fill="#8948a0" stroke="#8948a0" stroke-width="1.51"/><path d="M1315,-525L1369,-181L1833,-363Z" fill="#baa4d0" stroke="#baa4d0" stroke-width="1.51"/><path d="M1628,216L1405,621L1761,604Z" fill="#8f78b7" stroke="#8f78b7" stroke-width="1.51"/><path d="M1405,621L1620,721L1761,604Z" fill="#8c6cb1" stroke="#8c6cb1" stroke-width="1.51"/><path d="M1405,621L1538,986L1620,721Z" fill="#8c65ae" stroke="#8c65ae" stroke-width="1.51"/><path d="M1369,-181L1221,129L1628,216Z" fill="#a399c8" stroke="#a399c8" stroke-width="1.51"/><path d="M1221,129L1330,275L1628,216Z" fill="#9b93c6" stroke="#9b93c6" stroke-width="1.51"/><path d="M1330,275L1405,621L1628,216Z" fill="#9387be" stroke="#9387be" stroke-width="1.51"/><path d="M1405,621L1146,814L1538,986Z" fill="#8c6bb1" stroke="#8c6bb1" stroke-width="1.51"/><path d="M1146,814L1178,1065L1538,986Z" fill="#8b64ad" stroke="#8b64ad" stroke-width="1.51"/><path d="M1178,1065L1468,1226L1538,986Z" fill="#8a54a5" stroke="#8a54a5" stroke-width="1.51"/><path d="M1468,1226L1146,1579L1522,1427Z" fill="#83418f" stroke="#83418f" stroke-width="1.51"/><path d="M1330,275L1067,408L1405,621Z" fill="#908dc1" stroke="#908dc1" stroke-width="1.51"/><path d="M1178,1065L1146,1579L1468,1226Z" fill="#8a4e9d" stroke="#8a4e9d" stroke-width="1.51"/><path d="M1033,-25L1221,129L1369,-181Z" fill="#a8a7d0" stroke="#a8a7d0" stroke-width="1.51"/><path d="M1315,-525L1121,-497L1369,-181Z" fill="#bcb2d6" stroke="#bcb2d6" stroke-width="1.51"/><path d="M1067,408L1146,814L1405,621Z" fill="#8d83bc" stroke="#8d83bc" stroke-width="1.51"/><path d="M1121,-497L1033,-25L1369,-181Z" fill="#b4b2d6" stroke="#b4b2d6" stroke-width="1.51"/><path d="M1221,129L1067,408L1330,275Z" fill="#969bc9" stroke="#969bc9" stroke-width="1.51"/><path d="M-143,-303L150,-285L787,-503Z" fill="#d0dfed" stroke="#d0dfed" stroke-width="1.51"/><path d="M774,-110L1033,-25L1121,-497Z" fill="#b2bcdb" stroke="#b2bcdb" stroke-width="1.51"/><path d="M1067,408L878,617L1146,814Z" fill="#8d8dc1" stroke="#8d8dc1" stroke-width="1.51"/><path d="M749,1121L709,1492L1146,1579Z" fill="#895f9f" stroke="#895f9f" stroke-width="1.51"/><path d="M749,1121L1146,1579L1178,1065Z" fill="#8b5fa5" stroke="#8b5fa5" stroke-width="1.51"/><path d="M813,100L1067,408L1221,129Z" fill="#99a7cf" stroke="#99a7cf" stroke-width="1.51"/><path d="M1033,-25L813,100L1221,129Z" fill="#a2aed3" stroke="#a2aed3" stroke-width="1.51"/><path d="M787,-503L774,-110L1121,-497Z" fill="#bcc6e0" stroke="#bcc6e0" stroke-width="1.51"/><path d="M878,617L892,825L1146,814Z" fill="#8d85bd" stroke="#8d85bd" stroke-width="1.51"/><path d="M1146,814L892,825L1178,1065Z" fill="#8d74b5" stroke="#8d74b5" stroke-width="1.51"/><path d="M892,825L749,1121L1178,1065Z" fill="#8d74b5" stroke="#8d74b5" stroke-width="1.51"/><path d="M630,195L878,617L1067,408Z" fill="#93a4cd" stroke="#93a4cd" stroke-width="1.51"/><path d="M813,100L630,195L1067,408Z" fill="#9ab0d4" stroke="#9ab0d4" stroke-width="1.51"/><path d="M774,-110L813,100L1033,-25Z" fill="#a8b9d8" stroke="#a8b9d8" stroke-width="1.51"/><path d="M495,-264L774,-110L787,-503Z" fill="#becfe4" stroke="#becfe4" stroke-width="1.51"/><path d="M630,195L363,434L878,617Z" fill="#98afd3" stroke="#98afd3" stroke-width="1.51"/><path d="M878,617L625,888L892,825Z" fill="#918cc1" stroke="#918cc1" stroke-width="1.51"/><path d="M625,888L749,1121L892,825Z" fill="#9381bc" stroke="#9381bc" stroke-width="1.51"/><path d="M363,434L625,888L878,617Z" fill="#959eca" stroke="#959eca" stroke-width="1.51"/><path d="M573,1056L499,1512L709,1492Z" fill="#956eaa" stroke="#956eaa" stroke-width="1.51"/><path d="M573,1056L709,1492L749,1121Z" fill="#9473b0" stroke="#9473b0" stroke-width="1.51"/><path d="M625,888L573,1056L749,1121Z" fill="#9580bb" stroke="#9580bb" stroke-width="1.51"/><path d="M150,-285L495,-264L787,-503Z" fill="#c7d9ea" stroke="#c7d9ea" stroke-width="1.51"/><path d="M774,-110L630,195L813,100Z" fill="#a7bdda" stroke="#a7bdda" stroke-width="1.51"/><path d="M463,-187L630,195L774,-110Z" fill="#b0c6df" stroke="#b0c6df" stroke-width="1.51"/><path d="M495,-264L463,-187L774,-110Z" fill="#bad0e5" stroke="#bad0e5" stroke-width="1.51"/><path d="M463,-187L306,132L630,195Z" fill="#b0c8e1" stroke="#b0c8e1" stroke-width="1.51"/><path d="M230,1427L499,1512L573,1056Z" fill="#9c75ae" stroke="#9c75ae" stroke-width="1.51"/><path d="M286,1039L230,1427L573,1056Z" fill="#9f80b9" stroke="#9f80b9" stroke-width="1.51"/><path d="M363,434L286,981L625,888Z" fill="#9c9bc9" stroke="#9c9bc9" stroke-width="1.51"/><path d="M306,132L363,434L630,195Z" fill="#a5c0dd" stroke="#a5c0dd" stroke-width="1.51"/><path d="M-25,1337L-403,1367L230,1427Z" fill="#ac80b2" stroke="#ac80b2" stroke-width="1.51"/><path d="M286,981L573,1056L625,888Z" fill="#9a8ac0" stroke="#9a8ac0" stroke-width="1.51"/><path d="M286,981L286,1039L573,1056Z" fill="#9e89c0" stroke="#9e89c0" stroke-width="1.51"/><path d="M306,132L295,414L363,434Z" fill="#a7bfdc" stroke="#a7bfdc" stroke-width="1.51"/><path d="M295,414L286,981L363,434Z" fill="#a1abd1" stroke="#a1abd1" stroke-width="1.51"/><path d="M89,-92L306,132L463,-187Z" fill="#bed2e6" stroke="#bed2e6" stroke-width="1.51"/><path d="M150,-285L463,-187L495,-264Z" fill="#c6d8e9" stroke="#c6d8e9" stroke-width="1.51"/><path d="M-110,532L286,981L295,414Z" fill="#a7add2" stroke="#a7add2" stroke-width="1.51"/><path d="M150,-285L89,-92L463,-187Z" fill="#c9daea" stroke="#c9daea" stroke-width="1.51"/><path d="M-110,532L-231,766L286,981Z" fill="#afa8d1" stroke="#afa8d1" stroke-width="1.51"/><path d="M-25,1337L230,1427L286,1039Z" fill="#a780b6" stroke="#a780b6" stroke-width="1.51"/><path d="M-262,204L-110,532L295,414Z" fill="#b4c6e0" stroke="#b4c6e0" stroke-width="1.51"/><path d="M-262,204L295,414L306,132Z" fill="#b3cbe2" stroke="#b3cbe2" stroke-width="1.51"/><path d="M89,-92L-262,204L306,132Z" fill="#c0d4e6" stroke="#c0d4e6" stroke-width="1.51"/><path d="M-231,766L-263,1094L286,981Z" fill="#b19ccb" stroke="#b19ccb" stroke-width="1.51"/><path d="M286,981L-263,1094L286,1039Z" fill="#aa90c4" stroke="#aa90c4" stroke-width="1.51"/><path d="M-263,1094L-25,1337L286,1039Z" fill="#ae8bc0" stroke="#ae8bc0" stroke-width="1.51"/><path d="M-240,-97L-262,204L89,-92Z" fill="#ccddec" stroke="#ccddec" stroke-width="1.51"/><path d="M-143,-303L89,-92L150,-285Z" fill="#d3e2ef" stroke="#d3e2ef" stroke-width="1.51"/><path d="M-143,-303L-240,-97L89,-92Z" fill="#d5e3ef" stroke="#d5e3ef" stroke-width="1.51"/><path d="M-342,979L-263,1094L-231,766Z" fill="#b9a2ce" stroke="#b9a2ce" stroke-width="1.51"/><path d="M-263,1094L-403,1367L-25,1337Z" fill="#b68bbd" stroke="#b68bbd" stroke-width="1.51"/><path d="M-500,473L-231,766L-110,532Z" fill="#b9bddc" stroke="#b9bddc" stroke-width="1.51"/><path d="M-262,204L-500,473L-110,532Z" fill="#bdcce3" stroke="#bdcce3" stroke-width="1.51"/><path d="M-433,-270L-240,-97L-143,-303Z" fill="#dfebf3" stroke="#dfebf3" stroke-width="1.51"/><path d="M-464,1288L-403,1367L-263,1094Z" fill="#ba8fbf" stroke="#ba8fbf" stroke-width="1.51"/><path d="M-566,200L-500,473L-262,204Z" fill="#c5d7e9" stroke="#c5d7e9" stroke-width="1.51"/><path d="M-566,200L-262,204L-240,-97Z" fill="#cedeec" stroke="#cedeec" stroke-width="1.51"/><path d="M-555,-211L-566,200L-240,-97Z" fill="#d9e6f1" stroke="#d9e6f1" stroke-width="1.51"/><path d="M-500,473L-342,979L-231,766Z" fill="#bbb3d7" stroke="#bbb3d7" stroke-width="1.51"/><path d="M-433,-270L-555,-211L-240,-97Z" fill="#e1ecf4" stroke="#e1ecf4" stroke-width="1.51"/><path d="M-342,979L-464,1288L-263,1094Z" fill="#ba97c8" stroke="#ba97c8" stroke-width="1.51"/><path d="M-500,473L-464,1288L-342,979Z" fill="#bda7d1" stroke="#bda7d1" stroke-width="1.51"/><path d="M-500,473L-566,200L-464,1288Z" fill="#bfbddc" stroke="#bfbddc" stroke-width="1.51"/></svg>